<svg width="0" height="0" class="hidden">
  <symbol xmlns="http://www.w3.org/2000/svg" viewBox="0 0 50 50" id="home">
    <path d="M 24.962891 1.0546875 A 1.0001 1.0001 0 0 0 24.384766 1.2636719 L 1.3847656 19.210938 A 1.0005659 1.0005659 0 0 0 2.6152344 20.789062 L 4 19.708984 L 4 46 A 1.0001 1.0001 0 0 0 5 47 L 18.832031 47 A 1.0001 1.0001 0 0 0 19.158203 47 L 30.832031 47 A 1.0001 1.0001 0 0 0 31.158203 47 L 45 47 A 1.0001 1.0001 0 0 0 46 46 L 46 19.708984 L 47.384766 20.789062 A 1.0005657 1.0005657 0 1 0 48.615234 19.210938 L 41 13.269531 L 41 6 L 35 6 L 35 8.5859375 L 25.615234 1.2636719 A 1.0001 1.0001 0 0 0 24.962891 1.0546875 z M 25 3.3222656 L 44 18.148438 L 44 45 L 32 45 L 32 26 L 18 26 L 18 45 L 6 45 L 6 18.148438 L 25 3.3222656 z M 37 8 L 39 8 L 39 11.708984 L 37 10.146484 L 37 8 z M 20 28 L 30 28 L 30 45 L 20 45 L 20 28 z"></path>
  </symbol>
  
  <symbol xmlns="http://www.w3.org/2000/svg" viewBox="0 0 48 48" id="bonds">
    <path stroke="#149c4c" stroke-linecap="round" stroke-linejoin="round" stroke-width="3" d="M43.5,32.4v3.1c0,2.2-1.8,4-4,4h-31c-2.2,0-4-1.8-4-4V22.7"></path>
    <path fill="none" stroke="#149c4c" stroke-linecap="round" stroke-linejoin="round" stroke-width="3" d="M4.5,16.3v-3.8c0-2.2,1.8-4,4-4h31c2.2,0,4,1.8,4,4v14.9"></path>
    <circle cx="13" cy="18" r="2"></circle>
    <circle cx="35" cy="18" r="2"></circle>
    <line x1="15.5" x2="32.5" y1="33.5" y2="33.5" fill="none" stroke="#149c4c" stroke-linecap="round" stroke-linejoin="round" stroke-width="3"></line>
    <path fill="none" stroke="#149c4c" stroke-linecap="round" stroke-width="3" d="M22.3,22l2.1,0c1.1,0,1.9-0.9,1.9-2l0,0c0-1.1-0.9-2-2-2h-0.9c-1.1,0-2-0.9-2-2v0c0-1.1,0.9-1.9,1.9-2l1.5,0"></path>
    <line x1="23.7" x2="23.7" y1="13" y2="13.9" fill="none" stroke="149c4c" stroke-linecap="round" stroke-width="3"></line>
    <line x1="23.7" x2="23.7" y1="23.2" y2="22.2" fill="none" stroke="149c4c" stroke-linecap="round" stroke-width="3"></line>
    <line x1="12.5" x2="35.5" y1="28.5" y2="28.5" fill="none" stroke="149c4c" stroke-linecap="round" stroke-linejoin="round" stroke-width="3"></line>
  </symbol>
  <symbol xmlns="http://www.w3.org/2000/svg" viewBox="0 0 50 50" id="refresh">
    <path d="M 20 4 C 15.054688 4 11 8.054688 11 13 L 11 35.5625 L 5.71875 30.28125 L 4.28125 31.71875 L 11.28125 38.71875 L 12 39.40625 L 12.71875 38.71875 L 19.71875 31.71875 L 18.28125 30.28125 L 13 35.5625 L 13 13 C 13 9.144531 16.144531 6 20 6 L 31 6 L 31 4 Z M 38 10.59375 L 37.28125 11.28125 L 30.28125 18.28125 L 31.71875 19.71875 L 37 14.4375 L 37 37 C 37 40.855469 33.855469 44 30 44 L 19 44 L 19 46 L 30 46 C 34.945313 46 39 41.945313 39 37 L 39 14.4375 L 44.28125 19.71875 L 45.71875 18.28125 L 38.71875 11.28125 Z"></path>
  </symbol>
  <symbol xmlns="http://www.w3.org/2000/svg" viewBox="0 0 50 50" id="icons8-contacts (2)">
    <path d="M 13 4 C 8.0414839 4 4 8.0414839 4 13 L 4 37 C 4 41.958516 8.0414839 46 13 46 L 37 46 C 41.958516 46 46 41.958516 46 37 L 46 13 C 46 8.0414839 41.958516 4 37 4 L 13 4 z M 13 6 L 37 6 C 37.355032 6 37.659445 6.150633 38 6.2011719 L 38 43.798828 C 37.659445 43.849367 37.355032 44 37 44 L 13 44 C 9.1225161 44 6 40.877484 6 37 L 6 13 C 6 9.1225161 9.1225161 6 13 6 z M 40 6.7304688 C 42.352068 7.856447 44 10.209434 44 13 L 44 14 L 40 14 L 40 6.7304688 z M 22 12 C 14.832139 12 9 17.832144 9 25 C 9 32.167856 14.832139 38 22 38 C 29.167861 38 35 32.167856 35 25 C 35 17.832144 29.167861 12 22 12 z M 22 14 C 28.086982 14 33 18.913022 33 25 C 33 27.822097 31.934808 30.383342 30.195312 32.328125 C 28.169802 30.27163 25.239791 29 22 29 C 18.758932 29 15.833876 30.276672 13.808594 32.333984 C 12.066333 30.388584 11 27.824608 11 25 C 11 18.913022 15.913018 14 22 14 z M 40 16 L 44 16 L 44 24 L 40 24 L 40 16 z M 22 18 C 20.416667 18 19.101892 18.629756 18.251953 19.585938 C 17.402014 20.542119 17 21.777778 17 23 C 17 24.222222 17.402014 25.457882 18.251953 26.414062 C 19.101892 27.370244 20.416667 28 22 28 C 23.583333 28 24.898108 27.370244 25.748047 26.414062 C 26.597986 25.457881 27 24.222222 27 23 C 27 21.777778 26.597986 20.542118 25.748047 19.585938 C 24.898108 18.629756 23.583333 18 22 18 z M 22 20 C 23.083333 20 23.768559 20.370244 24.251953 20.914062 C 24.735347 21.457881 25 22.222222 25 23 C 25 23.777778 24.735347 24.542118 24.251953 25.085938 C 23.768559 25.629756 23.083333 26 22 26 C 20.916667 26 20.231441 25.629756 19.748047 25.085938 C 19.264653 24.542119 19 23.777778 19 23 C 19 22.222222 19.264653 21.457882 19.748047 20.914062 C 20.231441 20.370244 20.916667 20 22 20 z M 40 26 L 44 26 L 44 34 L 40 34 L 40 26 z M 22 31 C 24.694386 31 27.092805 32.055926 28.730469 33.695312 C 26.87065 35.135558 24.540932 36 22 36 C 19.4616 36 17.134304 35.136865 15.275391 33.699219 C 16.913049 32.060657 19.305741 31 22 31 z M 40 36 L 44 36 L 44 37 C 44 39.790566 42.352068 42.143553 40 43.269531 L 40 36 z"></path>
  </symbol>
<symbol xmlns="http://www.w3.org/2000/svg" viewBox="0 0 16 16" id="facebook">
    <g clip-path="url(#clip0_177_678)">
      <path d="M10.6646 2.65667H12.1253V0.112667C11.8733 0.078 11.0066 0 9.9973 0C7.8913 0 6.44863 1.32467 6.44863 3.75933V6H4.12463V8.844H6.44863V16H9.29797V8.84467H11.528L11.882 6.00067H9.2973V4.04133C9.29797 3.21933 9.5193 2.65667 10.6646 2.65667Z"></path>
    </g>
    <defs>
      <clipPath id="clip0_177_678">
        <rect width="16" height="16"></rect>
      </clipPath>
    </defs>
  </symbol>
  <symbol xmlns="http://www.w3.org/2000/svg" viewBox="0 0 16 16" id="youtube">
    <path d="M8.16271 2.66663C8.51871 2.66863 9.40937 2.67729 10.356 2.71529L10.692 2.72996C11.6447 2.77463 12.5967 2.85196 13.0694 2.98329C13.6994 3.16063 14.194 3.67663 14.3614 4.33129C14.628 5.37129 14.6614 7.39929 14.6654 7.89063L14.666 7.99196V8.10796C14.6614 8.59929 14.628 10.628 14.3614 11.6673C14.192 12.324 13.6967 12.8406 13.0694 13.0153C12.5967 13.1466 11.6447 13.224 10.692 13.2686L10.356 13.284C9.40937 13.3213 8.51871 13.3306 8.16271 13.332L8.00604 13.3326H7.83604C7.08271 13.328 3.93204 13.294 2.92937 13.0153C2.30004 12.838 1.80471 12.322 1.63737 11.6673C1.37071 10.6273 1.33737 8.59929 1.33337 8.10796V7.89063C1.33737 7.39929 1.37071 5.37063 1.63737 4.33129C1.80671 3.67463 2.30204 3.15796 2.93004 2.98396C3.93204 2.70463 7.08337 2.67063 7.83671 2.66663H8.16271ZM6.66604 5.66663V10.3333L10.666 7.99996L6.66604 5.66663Z"></path>
  </symbol>
  <symbol xmlns="http://www.w3.org/2000/svg" viewBox="0 0 24 24" id="twitter">
      <path id="Vector" d="M21 5.10349C20.1 5.56199 19.218 5.7482 18.3 6.02985C17.2911 4.84617 15.7953 4.78067 14.358 5.34023C12.9207 5.89979 11.9793 7.2678 12 8.837V9.77272C9.0795 9.85038 6.4785 8.46739 4.8 6.02985C4.8 6.02985 1.0362 12.985 8.4 16.3227C6.7152 17.4896 5.0349 18.2765 3 18.1942C5.9772 19.8813 9.2217 20.4614 12.0306 19.6137C15.2526 18.6405 17.9004 16.13 18.9165 12.3693C19.2196 11.2256 19.3701 10.0439 19.3638 8.85759C19.3638 8.62459 20.7228 6.26378 21 5.10255V5.10349Z" stroke-width="2" stroke-linecap="round" stroke-linejoin="round"></path>

  </symbol>
</svg>
