<svg xmlns="http://www.w3.org/2000/svg"  viewBox="0 0 48 48" width="100px" height="100px"><path fill="none" stroke="#000" stroke-linecap="round" stroke-linejoin="round" stroke-width="3" d="M43.5,32.4v3.1c0,2.2-1.8,4-4,4h-31c-2.2,0-4-1.8-4-4V22.7"/><path fill="none" stroke="#000" stroke-linecap="round" stroke-linejoin="round" stroke-width="3" d="M4.5,16.3v-3.8c0-2.2,1.8-4,4-4h31c2.2,0,4,1.8,4,4v14.9"/><circle cx="13" cy="18" r="2"/><circle cx="35" cy="18" r="2"/><line x1="15.5" x2="32.5" y1="33.5" y2="33.5" fill="none" stroke="#000" stroke-linecap="round" stroke-linejoin="round" stroke-width="3"/><path fill="none" stroke="#000" stroke-linecap="round" stroke-width="3" d="M22.3,22l2.1,0c1.1,0,1.9-0.9,1.9-2l0,0c0-1.1-0.9-2-2-2h-0.9c-1.1,0-2-0.9-2-2v0c0-1.1,0.9-1.9,1.9-2l1.5,0"/><line x1="23.7" x2="23.7" y1="13" y2="13.9" fill="none" stroke="#000" stroke-linecap="round" stroke-width="3"/><line x1="23.7" x2="23.7" y1="23.2" y2="22.2" fill="none" stroke="#000" stroke-linecap="round" stroke-width="3"/><line x1="12.5" x2="35.5" y1="28.5" y2="28.5" fill="none" stroke="#000" stroke-linecap="round" stroke-linejoin="round" stroke-width="3"/></svg>